<?xml version="1.0" standalone="no"?>
<!DOCTYPE svg PUBLIC "-//W3C//DTD SVG 20010904//EN"
 "http://www.w3.org/TR/2001/REC-SVG-20010904/DTD/svg10.dtd">
<svg version="1.0" xmlns="http://www.w3.org/2000/svg"
 width="1681.000000pt" height="362.000000pt" viewBox="0 0 1681.000000 362.000000"
 preserveAspectRatio="xMidYMid meet">

<g transform="translate(0.000000,362.000000) scale(0.100000,-0.100000)"
fill="#000000" stroke="none">
<path d="M8650 2270 l0 -1330 3820 0 3820 0 0 1330 0 1330 -3820 0 -3820 0 0
-1330z m4380 973 c483 -97 825 -566 778 -1069 -37 -404 -329 -755 -720 -864
-410 -114 -859 51 -1097 403 -53 78 -119 226 -141 317 -94 382 50 796 358
1027 241 182 526 246 822 186z m2024 17 c49 -6 119 -18 155 -27 132 -32 322
-136 406 -222 l39 -41 -113 -114 -114 -114 -56 46 c-112 91 -280 152 -421 152
-252 0 -496 -159 -606 -395 -86 -186 -83 -379 11 -570 161 -332 555 -466 891
-305 144 69 271 209 328 363 l26 67 -439 0 c-242 0 -442 3 -444 8 -2 4 14 79
37 167 l41 160 570 0 570 0 9 -80 c18 -155 -22 -372 -96 -520 -134 -268 -367
-456 -657 -532 -81 -21 -118 -25 -241 -25 -122 0 -160 4 -240 25 -370 96 -656
393 -735 762 -23 107 -23 303 0 410 39 182 127 346 263 486 163 170 365 271
593 298 105 12 123 12 223 1z m-5027 -59 c333 -122 480 -493 317 -801 l-34
-64 64 -66 c123 -125 170 -236 170 -400 0 -108 -18 -182 -67 -274 -44 -83
-137 -173 -224 -219 -114 -60 -166 -67 -505 -67 -164 0 -298 3 -298 7 0 4 28
79 63 165 l62 158 233 0 c251 0 269 3 330 55 76 64 101 192 55 281 -28 53 -82
100 -130 113 -23 7 -175 11 -390 11 l-353 0 0 -395 0 -395 -165 0 -165 0 0
961 0 960 488 -3 c478 -4 488 -4 549 -27z m1023 -771 l0 -790 380 0 380 0 0
-165 0 -165 -540 0 -540 0 0 955 0 955 160 0 160 0 0 -790z"/>
<path d="M12682 2926 c-34 -7 -104 -33 -155 -59 -339 -168 -471 -555 -305
-897 58 -120 178 -240 298 -298 256 -123 549 -82 752 106 142 132 213 298 212
498 -2 260 -139 476 -379 595 -132 65 -276 84 -423 55z"/>
<path d="M9320 2665 l0 -236 298 3 c282 3 299 4 337 25 83 45 125 114 125 208
0 94 -42 163 -125 208 -38 21 -55 22 -337 25 l-298 3 0 -236z"/>
<path d="M570 2271 l0 -961 160 0 160 0 2 793 3 792 250 3 c268 3 356 -7 460
-51 221 -93 369 -300 383 -538 7 -120 -11 -207 -63 -315 -70 -146 -179 -249
-324 -308 -89 -36 -156 -46 -307 -46 -73 0 -135 -4 -139 -9 -3 -6 -34 -80 -70
-166 l-64 -157 252 4 c217 4 263 8 330 26 440 120 736 522 714 972 -7 136 -31
239 -85 354 -128 272 -346 455 -637 533 l-100 27 -462 4 -463 4 0 -961z"/>
<path d="M3405 2283 c-235 -522 -430 -954 -432 -960 -4 -10 35 -13 176 -13
l180 0 22 51 c13 28 45 101 74 163 l51 111 395 5 396 5 -72 160 -73 160 -246
3 c-135 1 -246 5 -246 7 0 9 372 830 379 837 5 6 579 -1247 668 -1459 l18 -43
182 0 182 0 -65 143 c-35 78 -230 509 -432 957 l-368 815 -181 3 -180 2 -428
-947z"/>
<path d="M5180 2270 l0 -960 165 0 165 0 0 796 0 796 233 -4 c209 -4 237 -6
287 -26 80 -32 153 -99 192 -180 29 -59 33 -76 33 -152 0 -75 -4 -93 -32 -152
-37 -78 -92 -137 -165 -175 -47 -24 -68 -28 -176 -32 l-124 -6 -58 -141 c-32
-78 -61 -151 -65 -163 -6 -21 -4 -21 103 -21 l110 0 173 -270 174 -270 194 0
c150 0 192 3 188 13 -2 6 -88 142 -191 301 -103 159 -185 290 -184 291 2 1 30
19 63 40 98 61 196 169 244 266 105 215 106 412 5 619 -39 79 -62 110 -134
182 -73 74 -101 94 -181 132 -149 71 -188 76 -634 76 l-385 0 0 -960z"/>
<path d="M6450 3222 c0 -4 171 -280 380 -612 l380 -604 0 -348 0 -348 165 0
165 0 0 344 0 345 363 578 c199 318 373 595 386 616 l23 37 -195 0 -194 0
-273 -436 -273 -436 -21 33 c-12 18 -134 213 -273 434 l-251 400 -191 3 c-105
1 -191 -1 -191 -6z"/>
<path d="M2500 2265 l0 -955 165 0 165 0 0 955 0 955 -165 0 -165 0 0 -955z"/>
<path d="M15286 715 c-84 -30 -126 -85 -126 -165 0 -83 42 -126 171 -175 79
-31 108 -57 89 -80 -19 -23 -49 -18 -62 10 -11 24 -15 25 -105 25 -90 0 -93
-1 -93 -22 1 -82 112 -163 225 -163 88 0 127 11 172 50 85 72 78 197 -13 255
-24 15 -71 38 -103 50 -65 24 -97 51 -88 75 10 24 46 18 59 -10 11 -24 15 -25
105 -25 103 0 106 3 82 67 -37 98 -191 152 -313 108z"/>
<path d="M12080 537 c0 -215 11 -267 67 -323 50 -50 95 -66 183 -67 115 0 185
38 233 128 20 37 22 58 25 243 l3 202 -90 0 -91 0 0 -179 c0 -160 -2 -181 -19
-202 -13 -17 -29 -23 -56 -23 -27 0 -43 6 -56 23 -17 21 -19 42 -19 202 l0
179 -90 0 -90 0 0 -183z"/>
<path d="M12670 435 l0 -285 90 0 89 0 3 137 3 136 90 -136 90 -137 93 0 92 0
0 285 0 285 -90 0 -90 0 0 -142 c0 -99 -3 -139 -10 -132 -6 6 -48 69 -94 140
l-84 129 -91 3 -91 3 0 -286z"/>
<path d="M13300 435 l0 -285 90 0 90 0 0 285 0 285 -90 0 -90 0 0 -285z"/>
<path d="M13617 435 l95 -285 118 0 118 0 95 285 96 286 -97 -3 -97 -3 -55
-187 c-30 -104 -57 -188 -60 -188 -3 0 -30 84 -61 188 l-55 187 -96 3 -97 3
96 -286z"/>
<path d="M14180 435 l0 -285 190 0 190 0 0 70 0 70 -100 0 -100 0 0 40 0 40
90 0 90 0 0 70 0 70 -90 0 -90 0 0 35 0 35 100 0 100 0 0 70 0 70 -190 0 -190
0 0 -285z"/>
<path d="M14630 435 l0 -285 90 0 89 0 3 98 3 97 51 -95 51 -95 96 -3 c54 -1
97 0 97 4 0 3 -25 50 -55 103 -30 54 -55 100 -55 103 0 3 16 15 35 27 92 54
109 181 34 265 -47 54 -98 66 -281 66 l-158 0 0 -285z m288 123 c19 -19 15
-66 -7 -78 -11 -5 -38 -10 -60 -10 l-41 0 0 50 0 50 48 0 c26 0 53 -5 60 -12z"/>
<path d="M15680 435 l0 -285 190 0 190 0 0 70 0 70 -100 0 -100 0 0 40 0 40
90 0 90 0 0 70 0 70 -90 0 -90 0 0 35 0 35 100 0 100 0 0 70 0 70 -190 0 -190
0 0 -285z"/>
</g>
</svg>
