<?xml version="1.0" encoding="UTF-8"?>
<svg version="1.1" xmlns="http://www.w3.org/2000/svg" width="1031" height="250">
<path d="M0 0 C340.23 0 680.46 0 1031 0 C1031 82.5 1031 165 1031 250 C690.77 250 350.54 250 0 250 C0 167.5 0 85 0 0 Z " fill="#FDFDFD" transform="translate(0,0)"/>
<path d="M0 0 C156.09 0 312.18 0 473 0 C473 54.45 473 108.9 473 165 C316.91 165 160.82 165 0 165 C0 110.55 0 56.1 0 0 Z " fill="#010101" transform="translate(537,15)"/>
<path d="M0 0 C12.63617666 9.9837328 22.33759068 24.45616756 24.6875 40.6875 C25.69028692 59.37404853 21.82937046 76.65367451 9.375 91.1875 C-3.15578644 103.97621 -18.7221722 111.53249211 -36.66723633 111.98046875 C-54.79397904 112.13641449 -68.88931425 105.53314908 -82.09765625 93.03125 C-93.83916024 80.60637806 -99.87417417 64.63728326 -99.66162109 47.61499023 C-99.08893175 31.30113554 -91.74203906 16.22676264 -80.3125 4.6875 C-56.93816838 -15.52338824 -25.42987429 -18.39944827 0 0 Z " fill="#FBFBFB" transform="translate(832.3125,47.3125)"/>
<path d="M0 0 C67.87323944 0 67.87323944 0 78.6875 10.6640625 C85.88646966 18.54693428 88.375 26.57851968 88.375 37.140625 C87.86887374 42.34950775 86.11558175 46.55371278 83.8984375 51.2578125 C82.74684593 53.89064663 82.74684593 53.89064663 83.63671875 56.125 C85.12680243 58.17439876 86.70792859 60.02268482 88.4375 61.875 C95.61021458 69.91261571 96.49850979 77.71839583 96.265625 88.2109375 C95.55757064 98.31112466 90.5075689 105.40598863 83 112 C79.78970038 114.06135028 76.56053806 115.64144812 73 117 C72.14736572 117.34530762 71.29473145 117.69061523 70.41625977 118.04638672 C66.14088246 119.2398137 62.29592028 119.25072435 57.8828125 119.1953125 C57.02565643 119.1924826 56.16850037 119.18965271 55.28536987 119.18673706 C52.56510068 119.17559999 49.84516859 119.1505076 47.125 119.125 C45.27344228 119.11496182 43.42187936 119.10583744 41.5703125 119.09765625 C37.0467464 119.07568188 32.52343023 119.041197 28 119 C29.70634175 113.72079663 31.51434378 108.54735381 33.6875 103.4375 C34.12449219 102.40496094 34.56148437 101.37242187 35.01171875 100.30859375 C35.33785156 99.54675781 35.66398438 98.78492188 36 98 C36.91289795 97.98018066 37.8257959 97.96036133 38.76635742 97.93994141 C42.16782472 97.86163736 45.56886604 97.77493775 48.9699707 97.68261719 C50.43928862 97.64444048 51.90869639 97.60956818 53.37817383 97.578125 C55.49593114 97.53222711 57.6130759 97.47427628 59.73046875 97.4140625 C61.00301514 97.3826416 62.27556152 97.3512207 63.58666992 97.31884766 C66.84434023 97.01454057 69.1206209 96.52723935 72 95 C73.32481546 92.60470331 73.32481546 92.60470331 74 90 C74.495 88.515 74.495 88.515 75 87 C75.47952312 82.01295955 74.80208205 78.86021845 72.4609375 74.578125 C69.05718167 70.90134063 65.0398576 69.81947106 60.18798828 69.56762695 C58.3156895 69.52673083 56.44301664 69.50070822 54.5703125 69.48828125 C53.25244751 69.46332581 53.25244751 69.46332581 51.90795898 69.43786621 C48.64721254 69.38032694 45.38606217 69.34787912 42.125 69.3125 C34.82375 69.209375 27.5225 69.10625 20 69 C20 85.5 20 102 20 119 C13.4 119 6.8 119 0 119 C0 79.73 0 40.46 0 0 Z " fill="#FAFAFA" transform="translate(558,38)"/>
<path d="M0 0 C2.89012431 2.15041417 5.51955047 4.38900049 8 7 C3.59156563 12.29012124 -1.07559794 17.18808428 -6 22 C-6.51046875 21.62488281 -7.0209375 21.24976563 -7.546875 20.86328125 C-19.44242015 12.48999859 -30.53276611 9.03146354 -45 11 C-55.66883827 13.67309745 -63.61219738 20.19519098 -70 29 C-75.78439394 39.45451369 -78.26179404 50.18739963 -75.51953125 62.08447266 C-71.78760616 73.85964712 -65.10624314 81.04070857 -54.94140625 87.5546875 C-44.92032994 92.47872234 -31.47122396 92.90585719 -20.9375 89.375 C-16.65953527 87.56208202 -13.10902103 85.15393866 -9.55859375 82.171875 C-8 81 -8 81 -6 81 C-5.731875 80.44054687 -5.46375 79.88109375 -5.1875 79.3046875 C-3.46452499 75.96075573 -1.43477582 72.81846743 0.5625 69.6328125 C2.34704185 66.54911851 2.34704185 66.54911851 4 61 C-13.82 61 -31.64 61 -50 61 C-48.78381288 54.31097084 -47.47484352 47.63679583 -46 41 C-22.57 41 0.86 41 25 41 C27.1833315 49.73332601 26.74463334 59.42122459 24 68 C23.68160156 69.00675781 23.36320313 70.01351562 23.03515625 71.05078125 C17.53486633 86.81087124 6.70184875 99.36687801 -8.11816406 107.10693359 C-23.61107774 114.45943466 -40.66727252 115.31191715 -57 110 C-74.33185845 102.59785212 -86.81360399 90.3671237 -94 73 C-99.27542187 58.94480261 -99.57059455 41.13744351 -93.69091797 27.20825195 C-85.97408368 10.77214073 -72.60913951 -1.66345473 -55.625 -7.875 C-36.17614691 -14.50429304 -17.21789132 -10.57332198 0 0 Z " fill="#FCFCFC" transform="translate(963,46)"/>
<path d="M0 0 C74.11602394 0 74.11602394 0 90.3203125 15.15625 C102.69292745 28.73735292 109.73812344 44.01290541 109.2890625 62.546875 C108.83890327 67.92445284 107.65159608 72.87361737 106 78 C105.73316406 78.85207031 105.46632813 79.70414062 105.19140625 80.58203125 C102.70203806 87.60758146 98.6675014 93.2389697 94 99 C93.47792969 99.6496875 92.95585937 100.299375 92.41796875 100.96875 C82.46447921 112.05618138 66.53335322 118.10811159 52 119 C47.95682339 119.10434649 43.9191421 119.09594392 39.875 119.0625 C38.2971875 119.05573242 38.2971875 119.05573242 36.6875 119.04882812 C34.12493779 119.03718011 31.56250123 119.02082553 29 119 C29.61830949 113.97525707 31.12976776 109.75279506 33.0625 105.125 C33.34416016 104.43664062 33.62582031 103.74828125 33.91601562 103.0390625 C34.60515266 101.35710091 35.30180798 99.67822303 36 98 C36.57854736 97.9906543 37.15709473 97.98130859 37.75317383 97.97167969 C53.58744928 97.65029951 65.60261056 96.58432344 77.6484375 85.48046875 C85.34906789 77.44757766 87.67166813 67.82496373 87.45532227 57.01831055 C87.00292297 47.25467104 83.04682894 39.72130043 76.75 32.375 C60.20694243 18.08781391 41.89312594 20.68416019 20 20 C20 52.67 20 85.34 20 119 C13.4 119 6.8 119 0 119 C0 79.73 0 40.46 0 0 Z " fill="#020202" transform="translate(36,38)"/>
<path d="M0 0 C61.1 0 61.1 0 73.75 11.5 C74.4925 12.325 75.235 13.15 76 14 C76.825 14.886875 77.65 15.77375 78.5 16.6875 C86.74460385 26.70625911 87.77498554 37.56163061 87 50 C85.32617476 61.62463953 78.09291229 70.99310876 69 78 C67.33263839 79.33246419 65.66582281 80.66561253 64 82 C65.11794731 83.72773676 66.23592089 85.45545652 67.35400391 87.18310547 C68.33457819 88.6987772 69.31471431 90.21473249 70.29443359 91.73095703 C72.90101039 95.7635385 75.51475974 99.79109304 78.14453125 103.80859375 C78.64428467 104.57437744 79.14403809 105.34016113 79.65893555 106.12915039 C80.62257624 107.60534202 81.58881099 109.07984413 82.55786133 110.55249023 C82.99509521 111.22352783 83.4323291 111.89456543 83.8828125 112.5859375 C84.26840332 113.1742334 84.65399414 113.7625293 85.05126953 114.36865234 C86 116 86 116 87 119 C80.91956503 119.46123033 74.86019969 119.72251786 68.76171875 119.58984375 C67.76100342 119.57042725 66.76028809 119.55101074 65.72924805 119.53100586 C62.3643642 118.87632992 61.02601603 117.70625489 58.75 115.1875 C57.80959786 113.1357135 56.89780452 111.0707803 56 109 C53.97990097 105.6746394 51.82218626 102.44013351 49.6875 99.1875 C48.6423222 97.56073133 47.60418303 95.929412 46.57421875 94.29296875 C45.90265747 93.23372192 45.90265747 93.23372192 45.2175293 92.15307617 C44 90 44 90 42 85 C37.38 85 32.76 85 28 85 C28.66466682 81.67666588 29.17840603 79.24432568 30.41015625 76.23046875 C30.67763672 75.56982422 30.94511719 74.90917969 31.22070312 74.22851562 C31.49849609 73.55498047 31.77628906 72.88144531 32.0625 72.1875 C32.34416016 71.49462891 32.62582031 70.80175781 32.91601562 70.08789062 C33.60674973 68.39032376 34.30283728 66.69493688 35 65 C35.97839844 64.98582031 36.95679688 64.97164063 37.96484375 64.95703125 C47.44279026 64.6122092 54.44795308 63.55204692 61.375 56.625 C65.36361767 50.18184838 67.3930932 44.62237175 66 37 C63.39579587 30.76243891 60.12152248 26.12588382 54 23 C43.43638138 18.77455255 31.37060728 20.39208991 20 20 C20 52.67 20 85.34 20 119 C13.4 119 6.8 119 0 119 C0 79.73 0 40.46 0 0 Z " fill="#020202" transform="translate(322,38)"/>
<path d="M0 0 C7.59 0 15.18 0 23 0 C30.796668 16.51919033 38.42558038 33.09746201 45.80389404 49.80780029 C51.81509064 63.41595574 57.98692244 76.94565259 64.24145508 90.44360352 C76 115.8506572 76 115.8506572 76 119 C68.74 119 61.48 119 54 119 C46.53375218 103.11603349 39.14549728 87.20615715 31.99658203 71.17626953 C27.60292646 61.32712474 23.15475938 51.50346838 18.6875 41.6875 C18.35050079 40.94688324 18.01350159 40.20626648 17.66629028 39.44320679 C15.77856953 35.29499591 13.8897816 31.14727253 12 27 C8.97851736 30.57563344 7.23387494 34.6270526 5.3828125 38.87890625 C5.04377899 39.64621567 4.70474548 40.41352509 4.35543823 41.2040863 C3.27378541 43.65479191 2.19920353 46.10852134 1.125 48.5625 C0.05637552 50.99077345 -1.01369561 53.41840517 -2.08401489 55.84593201 C-2.74767843 57.35255901 -3.41011685 58.85972659 -4.0710144 60.36756897 C-6.66169013 66.27086032 -9.33150229 72.12930505 -12 78 C-1.77 78 8.46 78 19 78 C20.32 80.908125 21.64 83.81625 23 86.8125 C23.41765625 87.72491455 23.8353125 88.6373291 24.265625 89.57739258 C24.75289062 90.66250122 24.75289062 90.66250122 25.25 91.76953125 C25.75273437 92.87711792 25.75273437 92.87711792 26.265625 94.00708008 C27 96 27 96 27 99 C10.83 99.33 -5.34 99.66 -22 100 C-24.64 105.94 -27.28 111.88 -30 118 C-31 119 -31 119 -33.13305664 119.11352539 C-34.04949951 119.10828857 -34.96594238 119.10305176 -35.91015625 119.09765625 C-36.89951172 119.09443359 -37.88886719 119.09121094 -38.90820312 119.08789062 C-39.94912109 119.07951172 -40.99003906 119.07113281 -42.0625 119.0625 C-43.10728516 119.05798828 -44.15207031 119.05347656 -45.22851562 119.04882812 C-47.8190666 119.03699913 -50.40950559 119.02051689 -53 119 C-50.55193587 110.68796831 -46.90660005 103.00436155 -43.25372314 95.17105103 C-41.31530191 91.01324073 -39.39317812 86.84789417 -37.46875 82.68359375 C-37.08272614 81.84934372 -36.69670227 81.01509369 -36.29898071 80.15556335 C-33.02085852 73.06471449 -29.80727071 65.94694563 -26.625 58.8125 C-21.03712705 46.29562828 -15.40024688 33.80133411 -9.75 21.3125 C-9.10698944 19.89053818 -9.10698944 19.89053818 -8.45098877 18.43984985 C-7.23341816 15.74744859 -6.0152647 13.05531194 -4.796875 10.36328125 C-4.4277298 9.54702271 -4.05858459 8.73076416 -3.67825317 7.88977051 C-1.11558455 2.23116909 -1.11558455 2.23116909 0 0 Z " fill="#040404" transform="translate(238,38)"/>
<path d="M0 0 C1.11640869 -0.00942627 1.11640869 -0.00942627 2.25537109 -0.01904297 C12.24839065 0.20963533 21.64901578 4.85303008 28.98828125 11.5390625 C38.89429916 22.09801944 41.33207645 32.37943515 41.08203125 46.39453125 C40.57266078 57.84174177 35.03276336 65.90746692 26.75 73.5 C16.21496472 82.09150291 5.21664599 83.59927084 -8.00585938 82.74560547 C-18.01697314 81.64995921 -25.7065674 75.8232199 -32.25 68.5 C-40.75195155 57.2692217 -42.75418419 46.27808058 -41.25 32.5 C-38.68173217 22.15813578 -32.33929948 12.87113184 -23.51171875 6.8515625 C-15.74682941 2.2114041 -9.02134807 0.05746082 0 0 Z " fill="#010101" transform="translate(795.25,55.5)"/>
<path d="M0 0 C3.85254723 -0.2922343 7.70224308 -0.4685333 11.5625 -0.625 C12.64853516 -0.70878906 13.73457031 -0.79257812 14.85351562 -0.87890625 C22.74878431 -1.11888402 22.74878431 -1.11888402 26.08447266 1.86401367 C27.94613233 4.4882589 29.4762755 7.1668802 31 10 C32.18259506 11.88269265 33.37551626 13.75893435 34.578125 15.62890625 C35.80460667 17.60520709 37.02849788 19.58311755 38.25 21.5625 C43.34413657 29.77958868 48.49386258 37.94932366 53.85058594 45.99829102 C57 50.78595717 57 50.78595717 57 53 C57.66 53 58.32 53 59 53 C59.32871094 52.02933594 59.32871094 52.02933594 59.6640625 51.0390625 C61.49420209 46.8757625 63.91690712 43.19294692 66.375 39.375 C67.45840917 37.6758296 68.5417402 35.97660938 69.625 34.27734375 C70.181875 33.40706543 70.73875 32.53678711 71.3125 31.64013672 C74.0134541 27.41442526 76.69473662 23.17635314 79.375 18.9375 C79.8498584 18.18968262 80.3247168 17.44186523 80.81396484 16.67138672 C81.50546631 15.57914795 81.50546631 15.57914795 82.2109375 14.46484375 C82.91017334 13.39218262 82.91017334 13.39218262 83.62353516 12.29785156 C85.07674017 9.97564914 85.07674017 9.97564914 86.23193359 7.24121094 C87.59522865 4.37894943 88.76031643 2.25176719 91 0 C95.34849349 -1.21997516 99.40276654 -0.95309839 103.875 -0.625 C105.0403125 -0.57988281 106.205625 -0.53476562 107.40625 -0.48828125 C110.2761148 -0.37066384 113.13539824 -0.20665828 116 0 C111.16497619 8.54207363 105.97512377 16.81915458 100.68579102 25.08520508 C95.59286897 33.04886534 90.57368474 41.05652029 85.58984375 49.08886719 C84.73519531 50.46220215 84.73519531 50.46220215 83.86328125 51.86328125 C83.27603271 52.82967529 82.68878418 53.79606934 82.08374023 54.79174805 C80.50893497 57.21641308 78.91079102 59.4332368 77.13696289 61.70239258 C68.19927168 73.53591595 67.47339968 83.53353867 67.8125 98.0625 C67.81947808 100.10480672 67.82146097 102.14713684 67.81835938 104.18945312 C67.81235012 109.13106618 67.90799821 114.05543874 68 119 C61.4 119 54.8 119 48 119 C48.10183594 116.09058594 48.20367187 113.18117188 48.30859375 110.18359375 C48.80837979 88.01405402 49.00684213 71.85165532 33.97607422 54.42089844 C30.7359469 50.45140221 28.28471389 46.06434376 25.75 41.625 C20.82222835 33.27064306 15.62796852 25.11650925 10.3125 17.00488281 C8.13418062 13.67743513 5.97105026 10.34029504 3.8125 7 C3.42553955 6.40590332 3.0385791 5.81180664 2.63989258 5.19970703 C0 1.11405745 0 1.11405745 0 0 Z " fill="#020202" transform="translate(400,38)"/>
<path d="M0 0 C6.93 0 13.86 0 21 0 C21 32.34 21 64.68 21 98 C36.51 98 52.02 98 68 98 C68 104.93 68 111.86 68 119 C45.56 119 23.12 119 0 119 C0 79.73 0 40.46 0 0 Z " fill="#FEFEFE" transform="translate(665,38)"/>
<path d="M0 0 C6.6 0 13.2 0 20 0 C20 39.27 20 78.54 20 119 C13.4 119 6.8 119 0 119 C0 79.73 0 40.46 0 0 Z " fill="#000000" transform="translate(156,38)"/>
<path d="M0 0 C5.14210351 -0.09214322 10.28131076 -0.1716814 15.42358398 -0.21972656 C17.17042784 -0.23976622 18.91720525 -0.26700587 20.66381836 -0.30175781 C23.18359832 -0.35061582 25.70248685 -0.37304486 28.22265625 -0.390625 C28.99585709 -0.41127014 29.76905792 -0.43191528 30.56568909 -0.45318604 C36.16976783 -0.45547331 39.36291951 0.83595749 44 4 C46.86615506 7.08165544 47.88958822 10.32526132 48.5625 14.4375 C47.7139065 19.81192548 45.21256372 23.70263541 41.46484375 27.59399414 C37.74517986 29.71577944 34.28595284 29.37123746 30.078125 29.29296875 C29.21813904 29.28872391 28.35815308 29.28447906 27.47210693 29.28010559 C24.7310833 29.26334116 21.99080061 29.22569345 19.25 29.1875 C17.38933355 29.17245025 15.52865555 29.15876235 13.66796875 29.14648438 C9.11146553 29.1159993 4.55656003 29.0572752 0 29 C0 19.43 0 9.86 0 0 Z " fill="#040404" transform="translate(578,58)"/>
<path d="M0 0 C10.0881179 -0.73378013 10.0881179 -0.73378013 13.5 2.01171875 C13.995 2.89472656 14.49 3.77773437 15 4.6875 C15.515625 5.55761719 16.03125 6.42773438 16.5625 7.32421875 C17.036875 8.20722656 17.51125 9.09023437 18 10 C18.556875 10.89332031 19.11375 11.78664062 19.6875 12.70703125 C21 15 21 15 21 17 C21.66 17 22.32 17 23 17 C23 11.39 23 5.78 23 0 C26.63 0 30.26 0 34 0 C34.02465098 4.96622349 34.04283649 9.93241166 34.05493164 14.89868164 C34.0599719 16.58944316 34.06680405 18.28020029 34.07543945 19.97094727 C34.08751857 22.39600707 34.09323123 24.82100944 34.09765625 27.24609375 C34.10281754 28.00651474 34.10797882 28.76693573 34.11329651 29.55039978 C34.11349238 31.3673257 34.06197277 33.18413127 34 35 C32.37830827 36.62169173 30.67740102 36.51746066 28.4375 36.75 C24.64790796 36.744563 23.40108959 36.38523102 20.62890625 33.72265625 C17.43189127 29.35242477 14.86272866 25.09456289 13 20 C12.34 20 11.68 20 11 20 C11.01160156 21.07121094 11.02320313 22.14242187 11.03515625 23.24609375 C11.04453299 24.64322743 11.05363331 26.04036299 11.0625 27.4375 C11.07087891 28.14455078 11.07925781 28.85160156 11.08789062 29.58007812 C11.09653588 31.38693559 11.05220011 33.19387603 11 35 C10 36 10 36 7.96875 36.1328125 C7.1540625 36.13023437 6.339375 36.12765625 5.5 36.125 C4.6853125 36.12757813 3.870625 36.13015625 3.03125 36.1328125 C1 36 1 36 0 35 C-0.08851529 32.40640678 -0.11525945 29.83960309 -0.09765625 27.24609375 C-0.09553383 26.08292381 -0.09553383 26.08292381 -0.09336853 24.89625549 C-0.08775345 22.40996506 -0.07519846 19.9237634 -0.0625 17.4375 C-0.05748694 15.75586067 -0.0529237 14.07421994 -0.04882812 12.39257812 C-0.03777913 8.26168434 -0.02050445 4.13085724 0 0 Z " fill="#060606" transform="translate(786,193)"/>
<path d="M0 0 C0.88236328 -0.03738281 1.76472656 -0.07476562 2.67382812 -0.11328125 C9.11526205 -0.1989766 13.50292902 1.12305145 18.4375 5.375 C20.03293625 8.56587251 19.81811724 11.90270242 19.4375 15.375 C17.82183073 18.83714844 16.17368508 20.63881492 13.4375 23.375 C15.4175 27.335 17.3975 31.295 19.4375 35.375 C18.4375 36.375 18.4375 36.375 15.93359375 36.47265625 C14.92425781 36.46105469 13.91492188 36.44945312 12.875 36.4375 C11.86308594 36.42847656 10.85117187 36.41945312 9.80859375 36.41015625 C8.63490234 36.39275391 8.63490234 36.39275391 7.4375 36.375 C6.76595067 35.08586513 6.10041141 33.79359796 5.4375 32.5 C5.06625 31.78070313 4.695 31.06140625 4.3125 30.3203125 C3.4375 28.375 3.4375 28.375 3.4375 26.375 C2.7775 26.375 2.1175 26.375 1.4375 26.375 C1.44910156 27.01308594 1.46070313 27.65117187 1.47265625 28.30859375 C1.48167969 29.13488281 1.49070312 29.96117187 1.5 30.8125 C1.51160156 31.63621094 1.52320313 32.45992187 1.53515625 33.30859375 C1.4375 35.375 1.4375 35.375 0.4375 36.375 C-1.22679051 36.47323937 -2.89531931 36.50473631 -4.5625 36.5 C-5.92375 36.50386719 -5.92375 36.50386719 -7.3125 36.5078125 C-9.5625 36.375 -9.5625 36.375 -10.5625 35.375 C-10.66337212 32.86575847 -10.70222032 30.38463616 -10.6953125 27.875 C-10.69626923 27.12412109 -10.69722595 26.37324219 -10.69821167 25.59960938 C-10.69889338 24.00911373 -10.69703972 22.41861533 -10.69287109 20.828125 C-10.68752267 18.38535345 -10.69281634 15.94276579 -10.69921875 13.5 C-10.69855797 11.95833293 -10.6972768 10.41666597 -10.6953125 8.875 C-10.69733673 8.13958984 -10.69936096 7.40417969 -10.70144653 6.64648438 C-10.66368254 -1.46903302 -7.1220768 0.11104585 0 0 Z " fill="#0C0C0C" transform="translate(917.5625,192.625)"/>
<path d="M0 0 C0.9075 0.00257813 1.815 0.00515625 2.75 0.0078125 C4.11125 0.00394531 4.11125 0.00394531 5.5 0 C7.75 0.1328125 7.75 0.1328125 8.75 1.1328125 C8.90740605 2.83845028 9.00093392 4.55008494 9.06640625 6.26171875 C9.12924805 7.81342773 9.12924805 7.81342773 9.19335938 9.39648438 C9.23267578 10.48509766 9.27199219 11.57371094 9.3125 12.6953125 C9.35568359 13.78779297 9.39886719 14.88027344 9.44335938 16.00585938 C9.54982068 18.71470814 9.65183516 21.42365242 9.75 24.1328125 C11.73 24.1328125 13.71 24.1328125 15.75 24.1328125 C16.98060421 21.67160409 16.9557723 19.87504384 17.06640625 17.125 C17.10830078 16.13886719 17.15019531 15.15273437 17.19335938 14.13671875 C17.23267578 13.10417969 17.27199219 12.07164062 17.3125 11.0078125 C17.35568359 9.96753906 17.39886719 8.92726562 17.44335938 7.85546875 C17.54962768 5.2814142 17.65033527 2.70713119 17.75 0.1328125 C21.38 0.1328125 25.01 0.1328125 28.75 0.1328125 C28.8855811 4.13396131 28.98441636 8.13046825 29.0625 12.1328125 C29.10439453 13.25816406 29.14628906 14.38351563 29.18945312 15.54296875 C29.29393586 22.68958811 28.63904351 27.69915539 23.75 33.1328125 C18.71235433 36.97101872 12.84292692 36.9488295 6.75 36.1328125 C2.25387035 33.9650357 -0.15406512 31.65561935 -2.25 27.1328125 C-3.07007789 23.7350437 -3.37816614 20.57601725 -3.3828125 17.0859375 C-3.38410156 16.15910156 -3.38539063 15.23226562 -3.38671875 14.27734375 C-3.38285156 13.32214844 -3.37898437 12.36695313 -3.375 11.3828125 C-3.37886719 10.41214844 -3.38273438 9.44148437 -3.38671875 8.44140625 C-3.38542969 7.51972656 -3.38414062 6.59804687 -3.3828125 5.6484375 C-3.38168457 4.80571289 -3.38055664 3.96298828 -3.37939453 3.09472656 C-3.19194211 0.25252338 -2.84600501 0.16799335 0 0 Z " fill="#0C0C0C" transform="translate(752.25,192.8671875)"/>
<path d="M0 0 C3.63 0 7.26 0 11 0 C14.40578343 7.17647223 16.75352586 14.37803416 19 22 C21.31 14.74 23.62 7.48 26 0 C29.63 0 33.26 0 37 0 C36.42741549 4.71888615 35.50065205 9.01048798 34.00390625 13.51953125 C33.61009766 14.70611328 33.21628906 15.89269531 32.81054688 17.11523438 C32.39869141 18.33533203 31.98683594 19.55542969 31.5625 20.8125 C31.15451172 22.05193359 30.74652344 23.29136719 30.32617188 24.56835938 C29.93107422 25.74849609 29.53597656 26.92863281 29.12890625 28.14453125 C28.76869385 29.22065674 28.40848145 30.29678223 28.03735352 31.40551758 C27 34 27 34 25 36 C21.9609375 36.1953125 21.9609375 36.1953125 18.375 36.125 C16.59222656 36.09792969 16.59222656 36.09792969 14.7734375 36.0703125 C13.40058594 36.03550781 13.40058594 36.03550781 12 36 C8.92826541 28.5997242 6.2664731 21.10534091 3.75 13.5 C3.38648438 12.4171875 3.02296875 11.334375 2.6484375 10.21875 C2.30554688 9.1875 1.96265625 8.15625 1.609375 7.09375 C1.29967773 6.16240234 0.98998047 5.23105469 0.67089844 4.27148438 C0 2 0 2 0 0 Z " fill="#090909" transform="translate(839,193)"/>
<path d="M0 0 C3.82141561 1.42159476 5.73485429 3.60228144 8 7 C8 8.32 8 9.64 8 11 C4.04 11 0.08 11 -4 11 C-4 10.34 -4 9.68 -4 9 C-5.32 9 -6.64 9 -8 9 C-5.6297908 12.5553138 -3.82536613 13.26476183 0 15.0625 C5.80410023 17.80410023 5.80410023 17.80410023 8 20 C8.75171036 24.44907642 8.56792666 28.01138693 6.3125 31.9375 C1.71984124 36.03365511 -2.56495387 36.45028005 -8.5625 36.31640625 C-12.22348517 35.84118221 -14.28811794 34.4473082 -17 32 C-19.18702362 29.01106771 -20 27.72055546 -20 24 C-8.29384966 23.44646925 -8.29384966 23.44646925 -4 27 C-4 25.68 -4 24.36 -4 23 C-5.19625 22.7525 -6.3925 22.505 -7.625 22.25 C-12.39821255 21.04823372 -16.39047203 19.19481087 -19.375 15.125 C-20.25151896 12.14483554 -20.43422592 10.10161374 -20 7 C-14.96286128 -1.07065721 -8.85783022 -0.79645132 0 0 Z " fill="#090909" transform="translate(960,193)"/>
<path d="M0 0 C7.59 0 15.18 0 23 0 C23 2.97 23 5.94 23 9 C19.04 9 15.08 9 11 9 C11 10.32 11 11.64 11 13 C14.63 13 18.26 13 22 13 C22.09765625 19.15234375 22.09765625 19.15234375 22 21 C21 22 21 22 18.71484375 22.09765625 C17.34005859 22.08025391 17.34005859 22.08025391 15.9375 22.0625 C15.01839844 22.05347656 14.09929688 22.04445312 13.15234375 22.03515625 C12.44207031 22.02355469 11.73179687 22.01195312 11 22 C11 23.65 11 25.3 11 27 C14.96 27 18.92 27 23 27 C23 29.97 23 32.94 23 36 C15.41 36 7.82 36 0 36 C0 24.12 0 12.24 0 0 Z " fill="#0A0A0A" transform="translate(973,193)"/>
<path d="M0 0 C7.59 0 15.18 0 23 0 C23 2.97 23 5.94 23 9 C19.04 9 15.08 9 11 9 C11 10.32 11 11.64 11 13 C14.63 13 18.26 13 22 13 C22.09765625 19.15234375 22.09765625 19.15234375 22 21 C21 22 21 22 18.71484375 22.09765625 C17.34005859 22.08025391 17.34005859 22.08025391 15.9375 22.0625 C15.01839844 22.05347656 14.09929688 22.04445312 13.15234375 22.03515625 C12.44207031 22.02355469 11.73179687 22.01195312 11 22 C11 23.65 11 25.3 11 27 C14.96 27 18.92 27 23 27 C23 29.97 23 32.94 23 36 C15.41 36 7.82 36 0 36 C0 24.12 0 12.24 0 0 Z " fill="#0A0A0A" transform="translate(880,193)"/>
<path d="M0 0 C6.93 0 13.86 0 21 0 C21 32.34 21 64.68 21 98 C36.51 98 52.02 98 68 98 C68 104.93 68 111.86 68 119 C45.56 119 23.12 119 0 119 C0 79.73 0 40.46 0 0 Z M1 9 C1 44.97 1 80.94 1 118 C22.78 118 44.56 118 67 118 C67 111.73 67 105.46 67 99 C51.82 98.67 36.64 98.34 21 98 C20.67 71.93 20.34 45.86 20 19 C17.36 18.34 14.72 17.68 12 17 C7.98792209 14.63995417 4.65601553 11.92481243 1 9 Z " fill="#CBCBCB" transform="translate(665,38)"/>
<path d="M0 0 C3.63 0 7.26 0 11 0 C11 11.88 11 23.76 11 36 C7.37 36 3.74 36 0 36 C0 24.12 0 12.24 0 0 Z " fill="#090909" transform="translate(825,193)"/>
<path d="M0 0 C0.99 0.99 1.98 1.98 3 3 C-6.57 3 -16.14 3 -26 3 C-17.63100389 -3.69519688 -9.63601887 -5.19191261 0 0 Z " fill="#F1F1F1" transform="translate(696,11)"/>
<path d="M0 0 C2.31 0 4.62 0 7 0 C6.67 1.65 6.34 3.3 6 5 C4.02 5 2.04 5 0 5 C0 3.35 0 1.7 0 0 Z " fill="#F5F5F5" transform="translate(919,203)"/>
<path d="M0 0 C1.32 0 2.64 0 4 0 C4 0.66 4 1.32 4 2 C7.3 2 10.6 2 14 2 C14 2.33 14 2.66 14 3 C11.36 3 8.72 3 6 3 C5.67 3.66 5.34 4.32 5 5 C2.5 3.625 2.5 3.625 0 2 C0 1.34 0 0.68 0 0 Z " fill="#E1E1E1" transform="translate(952,202)"/>
<path d="M0 0 C2.475 0.495 2.475 0.495 5 1 C5 2.32 5 3.64 5 5 C3.68 4.67 2.36 4.34 1 4 C0.67 2.68 0.34 1.36 0 0 Z " fill="#E5E5E5" transform="translate(951,215)"/>
</svg>
